# xmcd
#
# Track frame offsets: 
#        150
#        21476
#        37820
#        52441
#        66689
#        76252
#        94524
#        112932
#        130800
#        146009
#        162262
#        182206
#        200487
#        223950
#        237475
#        254693
#        271414
#        286498
#
# Disc length: 3970 seconds
#
# Revision: 2
# Processed by: cddbd v1.5.2PL0 Copyright (c) Steve Scherf et al.
# Submitted via: ExactAudioCopyFreeDBPlugin 1.0
#
DISCID=200f8012
DTITLE=John Denver - John Denver - The Real John Denver [CD1]
DYEAR=2013
DGENRE=Country
TTITLE0=Rocky Mountain High
TTITLE1=Leaving On A Jet Plane
TTITLE2=Rhymes And Reasons
TTITLE3=Take Me Home, Country Roads
TTITLE4=I Guess He'd Rather Be In Colorado
TTITLE5=Wild Montana Skies
TTITLE6=Poems, Prayers And Promises
TTITLE7=Some Days Are Diamonds (Some Days Are Stone)
TTITLE8=Friends With You
TTITLE9=Goodbye Again
TTITLE10=I'd Rather Be A Cowboy (Lady's Chains)
TTITLE11=Farewell Andromeda (Welcome To My Morning)
TTITLE12=Sunshine On My Shoulders
TTITLE13=Annie's Song
TTITLE14=Seasons Of The Heart
TTITLE15=Matthew
TTITLE16=Thank God I'm A Country Boy
TTITLE17=Toledo
EXTD=
EXTT0=
EXTT1=
EXTT2=
EXTT3=
EXTT4=
EXTT5=
EXTT6=
EXTT7=
EXTT8=
EXTT9=
EXTT10=
EXTT11=
EXTT12=
EXTT13=
EXTT14=
EXTT15=
EXTT16=
EXTT17=
PLAYORDER=
